<svg xmlns="http://www.w3.org/2000/svg" xmlns:xlink="http://www.w3.org/1999/xlink" contentStyleType="text/css" data-diagram-type="DESCRIPTION" height="330px" preserveAspectRatio="none" style="width:392px;height:330px;background:#777777;" version="1.1" viewBox="0 0 392 330" width="392px" zoomAndPan="magnify"><title>Recipes</title><defs/><g><rect fill="#777777" height="330" style="stroke:none;stroke-width:1;" width="392" x="0" y="0"/><g class="title" data-source-line="1"><text fill="#000000" font-family="sans-serif" font-size="14" font-weight="bold" lengthAdjust="spacing" textLength="53.6963" x="162.4849" y="24.5332">Recipes</text></g><!--entity sofrito--><g class="entity" data-entity="sofrito" data-source-line="7" data-uid="ent0002" id="entity_sofrito"><rect fill="#2E2E2E" height="43.3687" rx="2.5" ry="2.5" style="stroke:#1B1B1B;stroke-width:0.5;" width="76.7866" x="45" y="45.6094"/><rect fill="#2E2E2E" height="10" style="stroke:#1B1B1B;stroke-width:0.5;" width="15" x="101.7866" y="50.6094"/><rect fill="#2E2E2E" height="2" style="stroke:#1B1B1B;stroke-width:0.5;" width="4" x="99.7866" y="52.6094"/><rect fill="#2E2E2E" height="2" style="stroke:#1B1B1B;stroke-width:0.5;" width="4" x="99.7866" y="56.6094"/><text fill="#FFFFFF" font-family="Verdana" font-size="11" lengthAdjust="spacing" textLength="36.7866" x="60" y="76.6685">Sofrito</text></g><!--entity beans--><g class="entity" data-entity="beans" data-source-line="8" data-uid="ent0003" id="entity_beans"><rect fill="#2E2E2E" height="43.3687" rx="2.5" ry="2.5" style="stroke:#1B1B1B;stroke-width:0.5;" width="73.3921" x="177" y="45.6094"/><rect fill="#2E2E2E" height="10" style="stroke:#1B1B1B;stroke-width:0.5;" width="15" x="230.3921" y="50.6094"/><rect fill="#2E2E2E" height="2" style="stroke:#1B1B1B;stroke-width:0.5;" width="4" x="228.3921" y="52.6094"/><rect fill="#2E2E2E" height="2" style="stroke:#1B1B1B;stroke-width:0.5;" width="4" x="228.3921" y="56.6094"/><text fill="#FFFFFF" font-family="Verdana" font-size="11" lengthAdjust="spacing" textLength="33.3921" x="192" y="76.6685">Beans</text></g><!--entity blackbeans--><g class="entity" data-entity="blackbeans" data-source-line="9" data-uid="ent0004" id="entity_blackbeans"><rect fill="#2E2E2E" height="43.3687" rx="2.5" ry="2.5" style="stroke:#1B1B1B;stroke-width:0.5;" width="106.666" x="280" y="163.6094"/><rect fill="#2E2E2E" height="10" style="stroke:#1B1B1B;stroke-width:0.5;" width="15" x="366.666" y="168.6094"/><rect fill="#2E2E2E" height="2" style="stroke:#1B1B1B;stroke-width:0.5;" width="4" x="364.666" y="170.6094"/><rect fill="#2E2E2E" height="2" style="stroke:#1B1B1B;stroke-width:0.5;" width="4" x="364.666" y="174.6094"/><text fill="#FFFFFF" font-family="Verdana" font-size="11" lengthAdjust="spacing" textLength="66.666" x="295" y="194.6685">Black Beans</text></g><!--entity frijoles--><g class="entity" data-entity="frijoles" data-source-line="10" data-uid="ent0005" id="entity_frijoles"><rect fill="#2E2E2E" height="43.3687" rx="2.5" ry="2.5" style="stroke:#1B1B1B;stroke-width:0.5;" width="132.4902" x="112.5" y="163.6094"/><rect fill="#2E2E2E" height="10" style="stroke:#1B1B1B;stroke-width:0.5;" width="15" x="224.9902" y="168.6094"/><rect fill="#2E2E2E" height="2" style="stroke:#1B1B1B;stroke-width:0.5;" width="4" x="222.9902" y="170.6094"/><rect fill="#2E2E2E" height="2" style="stroke:#1B1B1B;stroke-width:0.5;" width="4" x="222.9902" y="174.6094"/><text fill="#FFFFFF" font-family="Verdana" font-size="11" lengthAdjust="spacing" textLength="92.4902" x="127.5" y="194.6685">Frijoles Liquados</text></g><!--entity gallo_pinto--><g class="entity" data-entity="gallo_pinto" data-source-line="11" data-uid="ent0006" id="entity_gallo_pinto"><rect fill="#2E2E2E" height="43.3687" rx="2.5" ry="2.5" style="stroke:#1B1B1B;stroke-width:0.5;" width="99.3398" x="7" y="281.6094"/><rect fill="#2E2E2E" height="10" style="stroke:#1B1B1B;stroke-width:0.5;" width="15" x="86.3398" y="286.6094"/><rect fill="#2E2E2E" height="2" style="stroke:#1B1B1B;stroke-width:0.5;" width="4" x="84.3398" y="288.6094"/><rect fill="#2E2E2E" height="2" style="stroke:#1B1B1B;stroke-width:0.5;" width="4" x="84.3398" y="292.6094"/><text fill="#FFFFFF" font-family="Verdana" font-size="11" lengthAdjust="spacing" textLength="59.3398" x="22" y="312.6685">Gallo Pinto</text></g><!--link sofrito to frijoles--><g class="link" data-entity-1="sofrito" data-entity-2="frijoles" data-source-line="15" data-uid="lnk7" id="link_sofrito_frijoles"><path d="M99.48,88.6094 C109.68,101.5994 123.24,118.6894 135.5,133.6094 C143.69,143.5694 149.0469,149.9224 156.8669,159.0524" fill="none" id="sofrito-to-frijoles" style="stroke:#FFFFFF;stroke-width:1;"/><polygon fill="#FFFFFF" points="160.77,163.6094,157.9533,154.1719,157.5174,159.8119,151.8774,159.376,160.77,163.6094" style="stroke:#FFFFFF;stroke-width:1;"/><text fill="#BBBBBB" font-family="Verdana" font-size="11" lengthAdjust="spacing" textLength="48.4419" x="136.5" y="130.6685">Combine</text></g><!--link beans to frijoles--><g class="link" data-entity-1="beans" data-entity-2="frijoles" data-source-line="16" data-uid="lnk8" id="link_beans_frijoles"><path d="M207.24,88.8494 C200.87,109.9594 192.7828,136.7551 186.4328,157.8051" fill="none" id="beans-to-frijoles" style="stroke:#FFFFFF;stroke-width:1;"/><polygon fill="#FFFFFF" points="184.7,163.5494,191.1288,156.0881,186.144,158.7624,183.4697,153.7777,184.7,163.5494" style="stroke:#FFFFFF;stroke-width:1;"/><text fill="#BBBBBB" font-family="Verdana" font-size="11" lengthAdjust="spacing" textLength="48.4419" x="198.5" y="130.6685">Combine</text></g><!--link sofrito to gallo_pinto--><g class="link" data-entity-1="sofrito" data-entity-2="gallo_pinto" data-source-line="19" data-uid="lnk9" id="link_sofrito_gallo_pinto"><path d="M72.67,88.6594 C63.37,107.5394 50.67,136.6194 45.5,163.6094 C37.6,204.8294 44.2533,248.1346 50.1433,275.4046" fill="none" id="sofrito-to-gallo_pinto" style="stroke:#FFFFFF;stroke-width:1;"/><polygon fill="#FFFFFF" points="51.41,281.2694,53.4198,271.6278,50.3544,276.3821,45.6001,273.3167,51.41,281.2694" style="stroke:#FFFFFF;stroke-width:1;"/><text fill="#BBBBBB" font-family="Verdana" font-size="11" lengthAdjust="spacing" textLength="48.4419" x="46.5" y="189.6685">Combine</text></g><!--link blackbeans to gallo_pinto--><g class="link" data-entity-1="blackbeans" data-entity-2="gallo_pinto" data-source-line="20" data-uid="lnk10" id="link_blackbeans_gallo_pinto"><path d="M284.3,206.7094 C233.93,227.8094 161.6145,258.0921 111.2445,279.1821" fill="none" id="blackbeans-to-gallo_pinto" style="stroke:#FFFFFF;stroke-width:1;"/><polygon fill="#FFFFFF" points="105.71,281.4994,115.5565,281.7131,110.322,279.5683,112.4668,274.3338,105.71,281.4994" style="stroke:#FFFFFF;stroke-width:1;"/><text fill="#BBBBBB" font-family="Verdana" font-size="11" lengthAdjust="spacing" textLength="48.4419" x="212.5" y="248.6685">Combine</text></g><!--link beans to blackbeans--><g class="link" data-entity-1="beans" data-entity-2="blackbeans" data-source-line="24" data-uid="lnk11" id="link_beans_blackbeans"><path d="M234.95,88.8494 C256.8,109.9594 286.1466,138.3287 307.9166,159.3787" fill="none" id="beans-to-blackbeans" style="stroke:#FFFFFF;stroke-width:1;"/><polygon fill="#FFFFFF" points="312.23,163.5494,308.5404,154.4177,308.6355,160.0738,302.9795,160.1689,312.23,163.5494" style="stroke:#FFFFFF;stroke-width:1;"/><text fill="#BBBBBB" font-family="Verdana" font-size="11" lengthAdjust="spacing" textLength="24.2505" x="281.5" y="130.6685">type</text></g><!--SRC=[VLAnJiGm3Dtp5QPBORWVO60010i30YH6bBOk3St5lJZLwVuUfwckwLMmnNdFzdil2IPOX3UipO2ir5NeS8_WiMayCkyQxVlAZgXK2O_O6eSW3DXhuw2c_K0ENM2uzcd0ZT0-iRGMHaRG2mKud6HFIpxUMjGEB56l5aBnJgqtWGhG39pEENmlFJo1LJoj8Alh7Z92h3Ui9sz-o2B3YpcCkg74RUVRdFcihILuDMvMynthho7M5pbuj3eOSjoP8GeBHqGt8odH4cPVe5sJDCPKgca2IP0zmaQPclt3RdTtLWYtK3oapa9Dxlw6BzSk0MsMPsPNQpFJwytdSF-bYO8FYK6-WPSi3YDom4RUdWS9fZNrAhfpSadYXUHfb95FqT6H9LmTLeO4oSQ6qu10xTovwCnaYyp8AjGl]--></g></svg>